<mxfile host="app.diagrams.net" modified="2022-09-08T05:36:55.345Z" agent="5.0 (Windows NT 10.0; Win64; x64) AppleWebKit/537.36 (KHTML, like Gecko) Chrome/102.0.0.0 Safari/537.36" etag="MOKXV6VvO5rmGXFkRJZU" version="20.2.8" type="github">
  <diagram id="g1zE1YMW4KEDdYJNHegv" name="第 1 页">
    <mxGraphModel dx="1606" dy="430" grid="1" gridSize="10" guides="1" tooltips="1" connect="1" arrows="1" fold="1" page="1" pageScale="1" pageWidth="827" pageHeight="1169" math="0" shadow="0">
      <root>
        <mxCell id="0" />
        <mxCell id="1" parent="0" />
        <mxCell id="iaGcduhRjGTExQl_1i1G-44" value="" style="group" parent="1" vertex="1" connectable="0">
          <mxGeometry x="10" y="80" width="460" height="540" as="geometry" />
        </mxCell>
        <mxCell id="iaGcduhRjGTExQl_1i1G-6" value="" style="group" parent="iaGcduhRjGTExQl_1i1G-44" vertex="1" connectable="0">
          <mxGeometry x="150" width="160" height="80" as="geometry" />
        </mxCell>
        <mxCell id="iaGcduhRjGTExQl_1i1G-1" value="" style="rounded=0;whiteSpace=wrap;html=1;" parent="iaGcduhRjGTExQl_1i1G-6" vertex="1">
          <mxGeometry width="160" height="80" as="geometry" />
        </mxCell>
        <mxCell id="iaGcduhRjGTExQl_1i1G-2" value="社会经济结构" style="text;html=1;strokeColor=none;fillColor=none;align=center;verticalAlign=middle;whiteSpace=wrap;rounded=0;fontSize=19;fontStyle=1" parent="iaGcduhRjGTExQl_1i1G-6" vertex="1">
          <mxGeometry x="5" y="10" width="140" height="20" as="geometry" />
        </mxCell>
        <mxCell id="iaGcduhRjGTExQl_1i1G-4" value="人口；地理；工业化；城市化；医疗/教育机构" style="text;html=1;strokeColor=none;fillColor=none;align=center;verticalAlign=middle;whiteSpace=wrap;rounded=0;fontSize=10;" parent="iaGcduhRjGTExQl_1i1G-6" vertex="1">
          <mxGeometry x="15" y="40" width="130" height="30" as="geometry" />
        </mxCell>
        <mxCell id="iaGcduhRjGTExQl_1i1G-8" value="" style="rounded=0;whiteSpace=wrap;html=1;" parent="iaGcduhRjGTExQl_1i1G-44" vertex="1">
          <mxGeometry x="270" y="120" width="160" height="80" as="geometry" />
        </mxCell>
        <mxCell id="iaGcduhRjGTExQl_1i1G-9" value="物理环境" style="text;html=1;strokeColor=none;fillColor=none;align=center;verticalAlign=middle;whiteSpace=wrap;rounded=0;fontSize=15;fontStyle=1" parent="iaGcduhRjGTExQl_1i1G-44" vertex="1">
          <mxGeometry x="315" y="130" width="70" height="30" as="geometry" />
        </mxCell>
        <mxCell id="iaGcduhRjGTExQl_1i1G-10" value="" style="rounded=0;whiteSpace=wrap;html=1;fontSize=15;" parent="iaGcduhRjGTExQl_1i1G-44" vertex="1">
          <mxGeometry x="100" y="240" width="280" height="130" as="geometry" />
        </mxCell>
        <mxCell id="iaGcduhRjGTExQl_1i1G-11" value="犯罪机会结构" style="text;html=1;strokeColor=none;fillColor=none;align=center;verticalAlign=middle;whiteSpace=wrap;rounded=0;fontSize=19;fontStyle=1" parent="iaGcduhRjGTExQl_1i1G-44" vertex="1">
          <mxGeometry x="160" y="240" width="150" height="30" as="geometry" />
        </mxCell>
        <mxCell id="iaGcduhRjGTExQl_1i1G-13" value="" style="whiteSpace=wrap;html=1;aspect=fixed;fontSize=19;" parent="iaGcduhRjGTExQl_1i1G-44" vertex="1">
          <mxGeometry x="140" y="275" width="80" height="80" as="geometry" />
        </mxCell>
        <mxCell id="iaGcduhRjGTExQl_1i1G-14" value="" style="whiteSpace=wrap;html=1;aspect=fixed;fontSize=19;" parent="iaGcduhRjGTExQl_1i1G-44" vertex="1">
          <mxGeometry x="270" y="275" width="80" height="80" as="geometry" />
        </mxCell>
        <mxCell id="iaGcduhRjGTExQl_1i1G-16" value="" style="rounded=0;whiteSpace=wrap;html=1;fontSize=19;" parent="iaGcduhRjGTExQl_1i1G-44" vertex="1">
          <mxGeometry x="185" y="480" width="110" height="60" as="geometry" />
        </mxCell>
        <mxCell id="iaGcduhRjGTExQl_1i1G-18" value="" style="group" parent="iaGcduhRjGTExQl_1i1G-44" vertex="1" connectable="0">
          <mxGeometry x="50" y="120" width="160" height="80" as="geometry" />
        </mxCell>
        <mxCell id="iaGcduhRjGTExQl_1i1G-5" value="" style="rounded=0;whiteSpace=wrap;html=1;" parent="iaGcduhRjGTExQl_1i1G-18" vertex="1">
          <mxGeometry width="160" height="80" as="geometry" />
        </mxCell>
        <mxCell id="iaGcduhRjGTExQl_1i1G-7" value="日常活动" style="text;html=1;strokeColor=none;fillColor=none;align=center;verticalAlign=middle;whiteSpace=wrap;rounded=0;fontSize=15;fontStyle=1" parent="iaGcduhRjGTExQl_1i1G-18" vertex="1">
          <mxGeometry x="25" y="10" width="100" height="30" as="geometry" />
        </mxCell>
        <mxCell id="iaGcduhRjGTExQl_1i1G-17" value="娱乐/工作/居家/购物" style="text;html=1;strokeColor=none;fillColor=none;align=center;verticalAlign=middle;whiteSpace=wrap;rounded=0;fontSize=10;" parent="iaGcduhRjGTExQl_1i1G-18" vertex="1">
          <mxGeometry x="15" y="40" width="130" height="30" as="geometry" />
        </mxCell>
        <mxCell id="iaGcduhRjGTExQl_1i1G-19" value="城市形态；住房类型；交通" style="text;html=1;strokeColor=none;fillColor=none;align=center;verticalAlign=middle;whiteSpace=wrap;rounded=0;fontSize=10;" parent="iaGcduhRjGTExQl_1i1G-44" vertex="1">
          <mxGeometry x="267.5" y="160" width="165" height="30" as="geometry" />
        </mxCell>
        <mxCell id="iaGcduhRjGTExQl_1i1G-20" value="受害者" style="text;html=1;strokeColor=none;fillColor=none;align=center;verticalAlign=middle;whiteSpace=wrap;rounded=0;fontSize=14;" parent="iaGcduhRjGTExQl_1i1G-44" vertex="1">
          <mxGeometry x="145" y="280" width="60" height="30" as="geometry" />
        </mxCell>
        <mxCell id="iaGcduhRjGTExQl_1i1G-21" value="目标" style="text;html=1;strokeColor=none;fillColor=none;align=center;verticalAlign=middle;whiteSpace=wrap;rounded=0;fontSize=14;" parent="iaGcduhRjGTExQl_1i1G-44" vertex="1">
          <mxGeometry x="280" y="280" width="60" height="30" as="geometry" />
        </mxCell>
        <mxCell id="iaGcduhRjGTExQl_1i1G-22" value="独身女性；醉汉；陌生人" style="text;html=1;strokeColor=none;fillColor=none;align=center;verticalAlign=middle;whiteSpace=wrap;rounded=0;fontSize=8;" parent="iaGcduhRjGTExQl_1i1G-44" vertex="1">
          <mxGeometry x="135" y="310" width="90" height="30" as="geometry" />
        </mxCell>
        <mxCell id="iaGcduhRjGTExQl_1i1G-23" value="车辆；银行；商店" style="text;html=1;strokeColor=none;fillColor=none;align=center;verticalAlign=middle;whiteSpace=wrap;rounded=0;fontSize=8;" parent="iaGcduhRjGTExQl_1i1G-44" vertex="1">
          <mxGeometry x="270" y="310" width="80" height="30" as="geometry" />
        </mxCell>
        <mxCell id="iaGcduhRjGTExQl_1i1G-24" value="潜在的罪犯" style="text;html=1;strokeColor=none;fillColor=none;align=center;verticalAlign=middle;whiteSpace=wrap;rounded=0;fontSize=14;" parent="iaGcduhRjGTExQl_1i1G-44" vertex="1">
          <mxGeometry x="200" y="490" width="80" height="30" as="geometry" />
        </mxCell>
        <mxCell id="iaGcduhRjGTExQl_1i1G-26" value="动机" style="text;html=1;align=center;verticalAlign=middle;resizable=0;points=[];autosize=1;strokeColor=none;fillColor=none;fontSize=8;" parent="iaGcduhRjGTExQl_1i1G-44" vertex="1">
          <mxGeometry x="215" y="510" width="50" height="30" as="geometry" />
        </mxCell>
        <mxCell id="iaGcduhRjGTExQl_1i1G-27" value="" style="endArrow=classic;html=1;rounded=0;fontSize=8;exitX=0;exitY=0.5;exitDx=0;exitDy=0;entryX=0;entryY=0.5;entryDx=0;entryDy=0;" parent="iaGcduhRjGTExQl_1i1G-44" source="iaGcduhRjGTExQl_1i1G-5" target="iaGcduhRjGTExQl_1i1G-16" edge="1">
          <mxGeometry relative="1" as="geometry">
            <mxPoint x="310" y="360" as="sourcePoint" />
            <mxPoint x="410" y="360" as="targetPoint" />
            <Array as="points">
              <mxPoint y="160" />
              <mxPoint y="510" />
            </Array>
          </mxGeometry>
        </mxCell>
        <mxCell id="iaGcduhRjGTExQl_1i1G-28" value="行动自由" style="edgeLabel;resizable=0;html=1;align=center;verticalAlign=middle;fontSize=8;" parent="iaGcduhRjGTExQl_1i1G-27" connectable="0" vertex="1">
          <mxGeometry relative="1" as="geometry">
            <mxPoint y="-49" as="offset" />
          </mxGeometry>
        </mxCell>
        <mxCell id="iaGcduhRjGTExQl_1i1G-29" value="" style="endArrow=classic;html=1;rounded=0;fontSize=8;exitX=1;exitY=0.5;exitDx=0;exitDy=0;entryX=1;entryY=0.5;entryDx=0;entryDy=0;" parent="iaGcduhRjGTExQl_1i1G-44" source="iaGcduhRjGTExQl_1i1G-1" target="iaGcduhRjGTExQl_1i1G-16" edge="1">
          <mxGeometry relative="1" as="geometry">
            <mxPoint x="310" y="220" as="sourcePoint" />
            <mxPoint x="410" y="220" as="targetPoint" />
            <Array as="points">
              <mxPoint x="460" y="40" />
              <mxPoint x="460" y="510" />
            </Array>
          </mxGeometry>
        </mxCell>
        <mxCell id="iaGcduhRjGTExQl_1i1G-30" value="亚文化的影响；&lt;br&gt;社会控制；&lt;br&gt;缺爱等&lt;br&gt;（涉及传统犯罪学理论）" style="edgeLabel;resizable=0;html=1;align=center;verticalAlign=middle;fontSize=8;" parent="iaGcduhRjGTExQl_1i1G-29" connectable="0" vertex="1">
          <mxGeometry relative="1" as="geometry" />
        </mxCell>
        <mxCell id="iaGcduhRjGTExQl_1i1G-31" value="" style="endArrow=classic;html=1;rounded=0;fontSize=8;exitX=0.5;exitY=1;exitDx=0;exitDy=0;entryX=0.61;entryY=0;entryDx=0;entryDy=0;entryPerimeter=0;" parent="iaGcduhRjGTExQl_1i1G-44" source="iaGcduhRjGTExQl_1i1G-8" target="iaGcduhRjGTExQl_1i1G-14" edge="1">
          <mxGeometry width="50" height="50" relative="1" as="geometry">
            <mxPoint x="330" y="290" as="sourcePoint" />
            <mxPoint x="380" y="240" as="targetPoint" />
          </mxGeometry>
        </mxCell>
        <mxCell id="iaGcduhRjGTExQl_1i1G-32" value="" style="endArrow=classic;html=1;rounded=0;fontSize=8;entryX=0.386;entryY=-0.007;entryDx=0;entryDy=0;entryPerimeter=0;exitX=0.5;exitY=1;exitDx=0;exitDy=0;" parent="iaGcduhRjGTExQl_1i1G-44" source="iaGcduhRjGTExQl_1i1G-5" target="iaGcduhRjGTExQl_1i1G-13" edge="1">
          <mxGeometry width="50" height="50" relative="1" as="geometry">
            <mxPoint x="330" y="290" as="sourcePoint" />
            <mxPoint x="380" y="240" as="targetPoint" />
          </mxGeometry>
        </mxCell>
        <mxCell id="iaGcduhRjGTExQl_1i1G-34" value="" style="endArrow=classic;html=1;rounded=0;fontSize=8;exitX=0.783;exitY=1.017;exitDx=0;exitDy=0;exitPerimeter=0;entryX=0.25;entryY=0;entryDx=0;entryDy=0;" parent="iaGcduhRjGTExQl_1i1G-44" source="iaGcduhRjGTExQl_1i1G-5" target="iaGcduhRjGTExQl_1i1G-14" edge="1">
          <mxGeometry relative="1" as="geometry">
            <mxPoint x="310" y="330" as="sourcePoint" />
            <mxPoint x="410" y="330" as="targetPoint" />
          </mxGeometry>
        </mxCell>
        <mxCell id="iaGcduhRjGTExQl_1i1G-35" value="监管缺失" style="edgeLabel;resizable=0;html=1;align=center;verticalAlign=middle;fontSize=8;" parent="iaGcduhRjGTExQl_1i1G-34" connectable="0" vertex="1">
          <mxGeometry relative="1" as="geometry">
            <mxPoint x="-12" y="-18" as="offset" />
          </mxGeometry>
        </mxCell>
        <mxCell id="iaGcduhRjGTExQl_1i1G-36" value="" style="endArrow=classic;html=1;rounded=0;fontSize=8;exitX=0.293;exitY=1.001;exitDx=0;exitDy=0;exitPerimeter=0;entryX=0.5;entryY=0;entryDx=0;entryDy=0;" parent="iaGcduhRjGTExQl_1i1G-44" source="iaGcduhRjGTExQl_1i1G-1" target="iaGcduhRjGTExQl_1i1G-5" edge="1">
          <mxGeometry width="50" height="50" relative="1" as="geometry">
            <mxPoint x="330" y="230" as="sourcePoint" />
            <mxPoint x="380" y="180" as="targetPoint" />
          </mxGeometry>
        </mxCell>
        <mxCell id="iaGcduhRjGTExQl_1i1G-37" value="" style="endArrow=classic;html=1;rounded=0;fontSize=8;exitX=0.698;exitY=0.994;exitDx=0;exitDy=0;exitPerimeter=0;entryX=0.5;entryY=0;entryDx=0;entryDy=0;" parent="iaGcduhRjGTExQl_1i1G-44" source="iaGcduhRjGTExQl_1i1G-1" target="iaGcduhRjGTExQl_1i1G-8" edge="1">
          <mxGeometry width="50" height="50" relative="1" as="geometry">
            <mxPoint x="206.87999999999988" y="90.07999999999993" as="sourcePoint" />
            <mxPoint x="140" y="130" as="targetPoint" />
          </mxGeometry>
        </mxCell>
        <mxCell id="iaGcduhRjGTExQl_1i1G-39" value="" style="curved=1;endArrow=classic;html=1;rounded=0;fontSize=8;" parent="iaGcduhRjGTExQl_1i1G-44" edge="1">
          <mxGeometry width="50" height="50" relative="1" as="geometry">
            <mxPoint x="270" y="390" as="sourcePoint" />
            <mxPoint x="270" y="470" as="targetPoint" />
            <Array as="points">
              <mxPoint x="287.5" y="420" />
              <mxPoint x="277.5" y="450" />
            </Array>
          </mxGeometry>
        </mxCell>
        <mxCell id="iaGcduhRjGTExQl_1i1G-41" value="" style="curved=1;endArrow=classic;html=1;rounded=0;fontSize=8;" parent="iaGcduhRjGTExQl_1i1G-44" edge="1">
          <mxGeometry width="50" height="50" relative="1" as="geometry">
            <mxPoint x="225" y="470" as="sourcePoint" />
            <mxPoint x="220" y="390" as="targetPoint" />
            <Array as="points">
              <mxPoint x="205" y="450" />
              <mxPoint x="205" y="430" />
            </Array>
          </mxGeometry>
        </mxCell>
        <mxCell id="iaGcduhRjGTExQl_1i1G-42" value="搜索/感知" style="text;html=1;strokeColor=none;fillColor=none;align=center;verticalAlign=middle;whiteSpace=wrap;rounded=0;fontSize=8;" parent="iaGcduhRjGTExQl_1i1G-44" vertex="1">
          <mxGeometry x="215" y="400" width="60" height="30" as="geometry" />
        </mxCell>
        <mxCell id="iaGcduhRjGTExQl_1i1G-43" value="信息/构建" style="text;html=1;strokeColor=none;fillColor=none;align=center;verticalAlign=middle;whiteSpace=wrap;rounded=0;fontSize=8;" parent="iaGcduhRjGTExQl_1i1G-44" vertex="1">
          <mxGeometry x="215" y="430" width="60" height="30" as="geometry" />
        </mxCell>
      </root>
    </mxGraphModel>
  </diagram>
</mxfile>
